#N canvas 827 239 734 565 12;
#X obj 24 240 *~;
#X obj 149 59 osc~;
#X obj 94 135 *~;
#X obj 199 232 line~;
#X obj 23 287 *~;
#X obj 23 350 dac~;
#X obj 199 174 f 200;
#X obj 199 116 r noteon_trig @hv_param;
#X obj 149 24 r _ya_mod @hv_param 20 1000 200;
#X obj 224 139 r _za_decay @hv_param 10 1000 200;
#X obj 24 24 r pitch @hv_param;
#X obj 202 59 r int_f @hv_param 0.1 1 0.5;
#X msg 199 203 0.2 \, 0 \$1;
#X obj 24 50 sig~;
#X obj 24 87 hv.osc~ square;
#X obj 138 135 * -1;
#X obj 138 161 + 1;
#X obj 94 200 +~;
#X connect 0 0 4 0;
#X connect 1 0 2 0;
#X connect 2 0 17 0;
#X connect 3 0 4 1;
#X connect 4 0 5 0;
#X connect 4 0 5 1;
#X connect 6 0 12 0;
#X connect 7 0 6 0;
#X connect 8 0 1 0;
#X connect 9 0 6 1;
#X connect 10 0 13 0;
#X connect 11 0 2 1;
#X connect 11 0 15 0;
#X connect 12 0 3 0;
#X connect 13 0 14 0;
#X connect 14 0 0 0;
#X connect 15 0 16 0;
#X connect 16 0 17 1;
#X connect 17 0 0 1;
