#N canvas 827 239 734 565 12;
#X obj 99 259 vcf~;
#X obj 49 22 adc~;
#X obj 129 198 +~;
#X obj 49 330 dac~;
#X obj 249 183 r _zb_filterq_f @hv_param 2 6 4;
#X obj 129 117 hv.envfollow~;
#X obj 129 165 *~;
#X obj 10 259 vcf~;
#X obj 188 214 f 4;
#X obj 249 149 r _xa_base @hv_param 20 2000 660;
#X obj 249 118 r _ya_scale @hv_param 500 4000 1600;
#X obj 164 60 r attack @hv_param 0 1000 300;
#X obj 199 84 r release @hv_param 0 1000 600;
#X obj 100 66 *~ 2;
#X obj 100 92 clip~ -1 1;
#X obj 112 22 r _a_sensitivity @hv_param 1 4 2;
#X connect 0 0 3 1;
#X connect 1 0 7 0;
#X connect 1 0 13 0;
#X connect 1 1 0 0;
#X connect 1 1 13 0;
#X connect 2 0 0 1;
#X connect 2 0 7 1;
#X connect 4 0 8 0;
#X connect 5 0 6 0;
#X connect 6 0 2 0;
#X connect 7 0 3 0;
#X connect 8 0 0 2;
#X connect 8 0 7 2;
#X connect 9 0 2 1;
#X connect 10 0 6 1;
#X connect 11 0 5 1;
#X connect 12 0 5 2;
#X connect 13 0 14 0;
#X connect 14 0 5 0;
#X connect 15 0 13 1;
