#N canvas 491 161 600 355 12;
#X obj 99 24 adc~;
#X obj 39 180 *~ 0.5;
#X obj 99 289 dac~;
#X obj 152 180 *~ 0.5;
#X obj 123 213 delwrite~ comb2 85;
#X obj 18 74 delread~ comb1 1;
#X obj 174 74 delread~ comb2 1;
#X obj 39 124 lop~;
#X obj 152 124 lop~;
#X obj 98 241 delwrite~ comb1 85;
#X obj 299 80 r _ya_cutoff @hv_param 200 8000 1600;
#X obj 299 24 r _xa_delay_f @hv_param 0.05 80 10;
#X obj 299 135 r _zc_feedback_f @hv_param 0 0.8 0.5;
#X connect 0 0 9 0;
#X connect 0 1 4 0;
#X connect 1 0 9 0;
#X connect 3 0 4 0;
#X connect 5 0 7 0;
#X connect 6 0 8 0;
#X connect 7 0 1 0;
#X connect 7 0 2 0;
#X connect 8 0 3 0;
#X connect 8 0 2 1;
#X connect 10 0 8 1;
#X connect 10 0 7 1;
#X connect 11 0 6 0;
#X connect 11 0 5 0;
#X connect 12 0 1 1;
#X connect 12 0 3 1;
