#N canvas 827 239 734 565 12;
#X obj 99 24 adc~;
#X obj 39 230 *~ 0.5;
#X obj 99 339 dac~;
#X obj 152 230 *~ 0.5;
#X obj 113 263 delwrite~ comb2 85;
#X obj 39 174 lop~;
#X obj 152 174 lop~;
#X obj 97 291 delwrite~ comb1 85;
#X obj 299 130 r _ya_cutoff @hv_param 200 8000 1600;
#X obj 216 25 r _xa_delay_f @hv_param 0.05 80 10;
#X obj 299 185 r _zc_feedback_f @hv_param 0 0.8 0.65;
#X obj 174 124 delread4~ comb2 1;
#X obj 18 124 delread4~ comb1 1;
#X msg 216 54 \$1 10;
#X obj 216 80 line~;
#X connect 0 0 7 0;
#X connect 0 1 4 0;
#X connect 1 0 7 0;
#X connect 3 0 4 0;
#X connect 5 0 1 0;
#X connect 5 0 2 0;
#X connect 6 0 3 0;
#X connect 6 0 2 1;
#X connect 8 0 6 1;
#X connect 8 0 5 1;
#X connect 9 0 13 0;
#X connect 10 0 1 1;
#X connect 10 0 3 1;
#X connect 11 0 6 0;
#X connect 12 0 5 0;
#X connect 13 0 14 0;
#X connect 14 0 11 0;
#X connect 14 0 12 0;
