#N canvas 827 239 918 642 12;
#X obj 65 15 adc~;
#X obj 216 148 delwrite~ buf 2000;
#X obj 74 624 dac~;
#X obj 670 109 metro 80;
#X obj 670 78 loadbang;
#X obj 539 556 table noise_r 4 @hv_table;
#X obj 1153 453 *~;
#X obj 1199 337 cos~;
#X obj 1074 259 tabread~ noise_r;
#X obj 810 15 r jitter_f @hv_param 0.05 0.5 0.3;
#X obj 1199 402 +~ 0.5;
#X obj 1199 369 *~ -0.5;
#X obj 149 549 *~ 0.25;
#X obj 1074 369 +~;
#X obj 385 110 line~;
#X msg 385 84 \$1 10;
#X obj 798 112 *;
#X obj 767 80 f;
#X obj 810 78 f;
#X obj 603 111 /;
#X obj 591 81 f 1000;
#X obj 603 50 t b f;
#X obj 1103 503 *~;
#X obj 1205 503 *~;
#X obj 1074 402 delread4~ buf 0;
#X obj 1199 259 phasor~;
#X obj 1199 199 f 0.75;
#X obj 1074 299 samphold~;
#X obj 1074 337 *~;
#X obj 1268 381 *~;
#X obj 1129 61 sig~;
#X msg 513 84 \$1 10;
#X obj 513 110 line~;
#X obj 106 110 *~;
#X msg 131 45 \$1 10;
#X obj 131 71 line~;
#X obj 162 581 *~ 0.25;
#X obj 1268 439 *~ -1;
#X obj 1268 337 *~ 0.5;
#X obj 1209 453 +~ 0.5;
#X obj 1268 465 +~ 0.5;
#X obj 1039 15 r spread_f @hv_param 0 0.9 0.5;
#X obj 385 15 r _1xa_base @hv_param 80 300 200;
#X obj 131 15 r _2yb_feedback_f @hv_param 0 0.9 0.5;
#X obj 882 453 *~;
#X obj 928 337 cos~;
#X obj 803 259 tabread~ noise_r;
#X obj 928 402 +~ 0.5;
#X obj 928 369 *~ -0.5;
#X obj 803 369 +~;
#X obj 832 503 *~;
#X obj 934 503 *~;
#X obj 803 402 delread4~ buf 0;
#X obj 928 259 phasor~;
#X obj 803 299 samphold~;
#X obj 803 337 *~;
#X obj 997 381 *~;
#X obj 997 439 *~ -1;
#X obj 997 337 *~ 0.5;
#X obj 938 453 +~ 0.5;
#X obj 997 465 +~ 0.5;
#X obj 928 199 f 0.5;
#X obj 603 453 *~;
#X obj 649 337 cos~;
#X obj 524 259 tabread~ noise_r;
#X obj 649 402 +~ 0.5;
#X obj 649 369 *~ -0.5;
#X obj 524 369 +~;
#X obj 553 503 *~;
#X obj 655 503 *~;
#X obj 524 402 delread4~ buf 0;
#X obj 649 259 phasor~;
#X obj 524 299 samphold~;
#X obj 524 337 *~;
#X obj 718 381 *~;
#X obj 718 439 *~ -1;
#X obj 718 337 *~ 0.5;
#X obj 659 453 +~ 0.5;
#X obj 718 465 +~ 0.5;
#X obj 649 199 f 0.25;
#X obj 1074 199 sig~ 3;
#X obj 803 199 sig~ 2;
#X obj 524 199 sig~ 1;
#X obj 193 45 r _3za_mix_f @hv_param 0 1 0.3;
#X obj 610 15 r size @hv_param 30 120 80;
#X obj 74 576 *~;
#X obj 91 543 *~;
#X obj 112 483 * -1;
#X obj 112 509 + 1;
#X obj 319 454 *~;
#X obj 365 338 cos~;
#X obj 240 260 tabread~ noise_r;
#X obj 365 403 +~ 0.5;
#X obj 365 370 *~ -0.5;
#X obj 240 370 +~;
#X obj 269 504 *~;
#X obj 371 504 *~;
#X obj 240 403 delread4~ buf 0;
#X obj 365 260 phasor~;
#X obj 240 300 samphold~;
#X obj 240 338 *~;
#X obj 434 382 *~;
#X obj 434 440 *~ -1;
#X obj 434 338 *~ 0.5;
#X obj 375 454 +~ 0.5;
#X obj 434 466 +~ 0.5;
#X obj 240 200 sig~ 0;
#X obj 365 200 f 0;
#X connect 0 0 85 0;
#X connect 0 0 1 0;
#X connect 0 1 86 0;
#X connect 0 1 1 0;
#X connect 3 0 26 0;
#X connect 3 0 61 0;
#X connect 3 0 79 0;
#X connect 3 0 107 0;
#X connect 4 0 3 0;
#X connect 6 0 23 0;
#X connect 6 0 22 0;
#X connect 7 0 11 0;
#X connect 8 0 27 0;
#X connect 9 0 18 0;
#X connect 10 0 6 1;
#X connect 11 0 10 0;
#X connect 12 0 2 0;
#X connect 12 0 33 0;
#X connect 13 0 24 0;
#X connect 14 0 13 0;
#X connect 14 0 49 0;
#X connect 14 0 67 0;
#X connect 14 0 94 0;
#X connect 15 0 14 0;
#X connect 16 0 28 1;
#X connect 16 0 55 1;
#X connect 16 0 73 1;
#X connect 16 0 100 1;
#X connect 17 0 16 0;
#X connect 18 0 16 1;
#X connect 19 0 31 0;
#X connect 20 0 19 0;
#X connect 21 0 20 0;
#X connect 21 1 19 1;
#X connect 21 1 3 1;
#X connect 22 0 12 0;
#X connect 23 0 36 0;
#X connect 24 0 6 0;
#X connect 25 0 7 0;
#X connect 25 0 27 1;
#X connect 26 0 25 1;
#X connect 27 0 28 0;
#X connect 27 0 38 0;
#X connect 28 0 13 1;
#X connect 29 0 37 0;
#X connect 29 0 39 0;
#X connect 30 0 29 1;
#X connect 30 0 56 1;
#X connect 30 0 74 1;
#X connect 30 0 101 1;
#X connect 31 0 32 0;
#X connect 32 0 25 0;
#X connect 32 0 53 0;
#X connect 32 0 71 0;
#X connect 32 0 98 0;
#X connect 33 0 1 0;
#X connect 34 0 35 0;
#X connect 35 0 33 1;
#X connect 36 0 2 1;
#X connect 36 0 33 0;
#X connect 37 0 40 0;
#X connect 38 0 29 0;
#X connect 39 0 22 1;
#X connect 40 0 23 1;
#X connect 41 0 30 0;
#X connect 42 0 17 0;
#X connect 42 0 15 0;
#X connect 43 0 34 0;
#X connect 44 0 51 0;
#X connect 44 0 50 0;
#X connect 45 0 48 0;
#X connect 46 0 54 0;
#X connect 47 0 44 1;
#X connect 48 0 47 0;
#X connect 49 0 52 0;
#X connect 50 0 12 0;
#X connect 51 0 36 0;
#X connect 52 0 44 0;
#X connect 53 0 45 0;
#X connect 53 0 54 1;
#X connect 54 0 55 0;
#X connect 54 0 58 0;
#X connect 55 0 49 1;
#X connect 56 0 57 0;
#X connect 56 0 59 0;
#X connect 57 0 60 0;
#X connect 58 0 56 0;
#X connect 59 0 50 1;
#X connect 60 0 51 1;
#X connect 61 0 53 1;
#X connect 62 0 69 0;
#X connect 62 0 68 0;
#X connect 63 0 66 0;
#X connect 64 0 72 0;
#X connect 65 0 62 1;
#X connect 66 0 65 0;
#X connect 67 0 70 0;
#X connect 68 0 12 0;
#X connect 69 0 36 0;
#X connect 70 0 62 0;
#X connect 71 0 63 0;
#X connect 71 0 72 1;
#X connect 72 0 73 0;
#X connect 72 0 76 0;
#X connect 73 0 67 1;
#X connect 74 0 75 0;
#X connect 74 0 77 0;
#X connect 75 0 78 0;
#X connect 76 0 74 0;
#X connect 77 0 68 1;
#X connect 78 0 69 1;
#X connect 79 0 71 1;
#X connect 80 0 8 0;
#X connect 81 0 46 0;
#X connect 82 0 64 0;
#X connect 83 0 36 1;
#X connect 83 0 12 1;
#X connect 83 0 87 0;
#X connect 84 0 21 0;
#X connect 85 0 2 0;
#X connect 86 0 2 1;
#X connect 87 0 88 0;
#X connect 88 0 86 1;
#X connect 88 0 85 1;
#X connect 89 0 96 0;
#X connect 89 0 95 0;
#X connect 90 0 93 0;
#X connect 91 0 99 0;
#X connect 92 0 89 1;
#X connect 93 0 92 0;
#X connect 94 0 97 0;
#X connect 95 0 12 0;
#X connect 96 0 36 0;
#X connect 97 0 89 0;
#X connect 98 0 90 0;
#X connect 98 0 99 1;
#X connect 99 0 100 0;
#X connect 99 0 103 0;
#X connect 100 0 94 1;
#X connect 101 0 102 0;
#X connect 101 0 104 0;
#X connect 102 0 105 0;
#X connect 103 0 101 0;
#X connect 104 0 95 1;
#X connect 105 0 96 1;
#X connect 106 0 91 0;
#X connect 107 0 98 1;
